<?xml version="1.0" standalone="no"?>
<!DOCTYPE svg PUBLIC "-//W3C//DTD SVG 20010904//EN"
 "http://www.w3.org/TR/2001/REC-SVG-20010904/DTD/svg10.dtd">
<svg version="1.0" xmlns="http://www.w3.org/2000/svg"
 width="1100.000000pt" height="1200.000000pt" viewBox="0 0 1100.000000 1200.000000"
 preserveAspectRatio="xMidYMid meet">

<g transform="translate(0.000000,1200.000000) scale(0.100000,-0.100000)"
fill="#000000" stroke="none">
<path d="M5340 11680 l0 -180 -245 0 -245 0 0 -100 0 -100 245 0 245 0 0 -385
0 -385 -27 0 c-30 0 -85 -10 -293 -52 -864 -177 -1451 -766 -1595 -1602 -8
-49 -15 -99 -15 -112 0 -31 -4 -30 -49 5 -72 57 -228 154 -326 203 -193 97
-397 162 -606 193 -142 20 -443 20 -590 -1 -630 -87 -1228 -490 -1567 -1054
-107 -178 -181 -351 -238 -555 -28 -99 -28 -102 -32 -458 l-3 -357 30 -123
c68 -279 199 -538 397 -782 80 -100 379 -400 519 -522 457 -397 922 -708 1477
-984 119 -59 214 -110 211 -112 -3 -3 -4 -672 -4 -1486 1 -1399 2 -1482 18
-1503 27 -33 125 -128 134 -128 4 0 14 -6 21 -13 13 -12 155 -57 182 -57 8 0
16 -4 18 -9 4 -12 204 -80 285 -97 37 -8 85 -14 105 -14 21 0 38 -4 38 -10 0
-5 17 -10 38 -10 52 0 396 -55 457 -73 28 -9 84 -18 125 -22 41 -4 80 -11 85
-15 6 -5 66 -14 135 -20 68 -6 128 -14 133 -17 5 -3 100 -9 211 -13 110 -4
221 -13 246 -19 25 -5 104 -13 175 -16 72 -3 207 -13 300 -22 146 -14 193 -14
330 -4 88 7 221 14 295 17 74 3 137 10 141 15 3 5 48 12 100 14 169 7 372 23
433 34 34 6 129 18 211 26 83 9 173 20 200 25 28 6 106 21 175 35 281 55 300
61 331 97 11 12 30 18 58 18 22 0 41 4 41 9 0 4 31 11 69 15 81 7 101 13 101
31 0 15 59 45 87 45 10 0 43 9 73 21 30 11 89 31 130 44 161 51 175 59 254
132 19 17 44 34 55 38 12 3 21 11 21 16 0 5 11 9 25 9 l25 0 0 1460 c0 1225
-2 1460 -14 1460 -8 0 -12 8 -9 23 4 18 34 37 145 92 410 203 875 502 1238
795 247 200 556 493 696 660 210 250 358 536 428 828 l27 113 -3 357 c-4 386
-3 375 -70 582 -222 685 -835 1257 -1544 1440 -169 44 -310 60 -522 60 -272 0
-468 -34 -692 -117 -167 -62 -402 -192 -533 -296 -21 -16 -39 -28 -41 -26 -1
2 -9 45 -16 94 -65 459 -281 870 -610 1162 -255 227 -590 395 -932 468 -68 15
-132 31 -143 35 -17 8 -175 30 -212 30 -10 0 -13 84 -13 385 l0 385 235 0 235
0 0 100 0 100 -235 0 -235 0 0 180 0 180 -165 0 -165 0 0 -180z m408 -1211
c440 -48 870 -234 1182 -512 331 -294 552 -716 610 -1167 7 -52 14 -101 16
-107 7 -25 46 -13 102 31 503 386 1104 517 1686 366 809 -209 1452 -887 1611
-1700 22 -113 31 -399 16 -515 -38 -292 -146 -575 -317 -827 -101 -149 -190
-254 -359 -422 -1124 -1116 -2679 -1824 -4420 -2012 -478 -52 -1115 13 -1820
186 -1178 289 -2209 813 -3070 1563 -140 122 -439 422 -519 522 -446 551 -563
1208 -329 1835 190 508 572 937 1063 1193 586 307 1223 317 1795 29 105 -52
250 -144 348 -219 68 -52 101 -55 105 -8 1 17 9 74 18 128 130 818 727 1425
1574 1601 69 15 159 30 200 35 110 12 396 13 508 0z m2617 -7226 l-7 -152 -78
-31 c-43 -17 -81 -38 -84 -45 -7 -19 -235 -128 -311 -149 -33 -9 -87 -25 -120
-36 -33 -10 -103 -29 -155 -40 -52 -12 -109 -26 -126 -31 -17 -5 -44 -9 -62
-9 -17 0 -34 -4 -37 -10 -3 -5 -28 -10 -55 -10 -27 0 -75 -7 -107 -16 -76 -21
-196 -39 -410 -60 -35 -4 -63 -10 -63 -14 0 -10 -55 -20 -175 -29 -55 -5 -116
-12 -135 -16 -19 -3 -91 -13 -160 -21 -69 -8 -159 -19 -200 -25 -41 -6 -133
-13 -205 -15 -71 -3 -132 -9 -135 -15 -8 -11 -199 -15 -647 -11 -310 2 -343 4
-343 18 0 15 -9 16 -65 10 -36 -4 -65 -3 -65 2 0 5 -19 15 -42 22 -24 8 -45
17 -48 20 -8 8 -75 30 -93 30 -9 0 -17 4 -17 8 0 11 -138 32 -210 32 -54 1
-255 22 -375 41 -66 10 -239 24 -465 39 -80 5 -176 16 -215 24 -38 9 -79 16
-91 16 -11 0 -39 9 -62 20 -22 11 -46 20 -52 20 -5 0 -10 4 -10 9 0 5 -11 12
-25 15 -14 4 -25 11 -25 16 0 6 -5 10 -11 10 -6 0 -16 6 -24 13 -7 6 -36 30
-64 52 l-51 40 0 608 c0 599 0 608 19 597 11 -5 98 -41 193 -79 696 -277 1378
-445 2133 -527 798 -87 1970 125 2999 541 77 31 172 71 210 89 l71 32 3 -415
c2 -229 0 -484 -3 -568z m5 -367 l0 -74 -79 -32 c-44 -17 -82 -38 -85 -45 -7
-19 -235 -128 -311 -149 -33 -9 -87 -25 -120 -36 -33 -10 -103 -29 -155 -40
-52 -12 -109 -26 -126 -31 -17 -5 -44 -9 -62 -9 -17 0 -34 -4 -37 -10 -3 -5
-28 -10 -55 -10 -27 0 -75 -7 -107 -16 -76 -21 -196 -39 -410 -60 -35 -4 -63
-10 -63 -14 0 -10 -55 -20 -175 -29 -55 -5 -116 -12 -135 -16 -19 -3 -91 -13
-160 -21 -69 -8 -159 -19 -200 -25 -41 -6 -133 -13 -205 -15 -71 -3 -132 -9
-135 -15 -8 -11 -199 -15 -647 -11 -310 2 -343 4 -343 18 0 15 -9 16 -65 10
-36 -4 -65 -3 -65 2 0 5 -19 15 -42 22 -24 8 -45 17 -48 20 -8 8 -75 30 -93
30 -9 0 -17 4 -17 8 0 11 -138 32 -210 32 -54 1 -255 22 -375 41 -66 10 -239
24 -465 39 -80 5 -176 16 -215 24 -38 9 -79 16 -91 16 -11 0 -39 9 -62 20 -22
11 -46 20 -52 20 -5 0 -10 4 -10 9 0 5 -11 12 -25 15 -14 4 -25 11 -25 16 0 6
-4 10 -10 10 -5 0 -18 6 -27 14 -10 8 -38 31 -61 50 -24 20 -48 36 -53 36 -5
0 -9 34 -9 75 l0 75 28 -17 c15 -10 29 -20 32 -23 7 -7 156 -50 174 -50 8 0
16 -4 18 -9 4 -12 204 -80 285 -97 37 -8 85 -14 105 -14 21 0 38 -4 38 -10 0
-5 17 -10 38 -10 52 0 396 -55 457 -73 28 -9 84 -18 125 -22 41 -4 80 -11 85
-15 6 -5 66 -14 135 -20 68 -6 128 -14 133 -17 5 -3 100 -9 211 -13 110 -4
221 -13 246 -19 25 -5 104 -13 175 -16 72 -3 207 -13 300 -22 146 -14 193 -14
330 -4 88 7 221 14 295 17 74 3 137 10 141 15 3 5 48 12 100 14 169 7 372 23
433 34 34 6 129 18 211 26 83 9 173 20 200 25 28 6 106 21 175 35 281 55 300
61 331 97 11 12 30 18 58 18 22 0 41 4 41 9 0 4 31 11 69 15 81 7 101 13 101
31 0 15 59 45 87 45 10 0 43 9 73 21 30 11 89 31 130 44 154 49 187 65 240
120 25 26 30 17 30 -59z m0 -850 l0 -634 -79 -32 c-44 -17 -82 -38 -85 -45 -7
-19 -235 -128 -311 -149 -33 -9 -87 -25 -120 -36 -33 -10 -103 -29 -155 -40
-52 -12 -109 -26 -126 -31 -17 -5 -44 -9 -62 -9 -17 0 -34 -5 -37 -10 -3 -5
-28 -10 -55 -10 -27 0 -75 -7 -107 -16 -76 -21 -196 -39 -410 -60 -35 -4 -63
-10 -63 -14 0 -10 -55 -20 -175 -29 -55 -5 -116 -12 -135 -16 -19 -3 -91 -13
-160 -21 -69 -8 -159 -19 -200 -25 -41 -6 -133 -13 -205 -15 -71 -3 -132 -9
-135 -15 -8 -11 -199 -15 -647 -11 -310 2 -343 4 -343 18 0 15 -9 16 -65 10
-36 -4 -65 -3 -65 2 0 5 -19 15 -42 22 -24 8 -45 17 -48 20 -8 8 -75 30 -93
30 -9 0 -17 4 -17 8 0 11 -138 32 -210 32 -54 1 -255 22 -375 41 -66 10 -239
24 -465 39 -80 5 -176 16 -215 24 -38 9 -79 16 -91 16 -11 0 -39 9 -62 20 -22
11 -46 20 -52 20 -5 0 -10 4 -10 9 0 5 -11 12 -25 15 -14 4 -25 11 -25 16 0 6
-4 10 -10 10 -5 0 -18 6 -27 14 -10 8 -38 31 -61 50 -24 20 -48 36 -53 36 -5
0 -9 265 -9 640 l0 641 33 -23 c17 -13 34 -25 37 -28 7 -7 156 -50 174 -50 8
0 16 -4 18 -9 4 -12 204 -80 285 -97 37 -8 85 -14 105 -14 21 0 38 -4 38 -10
0 -5 17 -10 38 -10 52 0 396 -55 457 -73 28 -9 84 -18 125 -22 41 -4 80 -11
85 -15 6 -5 66 -14 135 -20 68 -6 128 -14 133 -17 5 -3 100 -9 211 -13 110 -4
221 -13 246 -19 25 -5 104 -13 175 -16 72 -3 207 -13 300 -22 146 -14 193 -14
330 -4 88 7 221 14 295 17 74 3 137 10 141 15 3 5 48 12 100 14 169 7 372 23
433 34 34 6 129 18 211 26 83 9 173 20 200 25 28 6 106 21 175 35 281 55 300
61 331 97 11 12 30 18 58 18 22 0 41 4 41 9 0 4 31 11 69 15 81 7 101 13 101
31 0 15 59 45 87 45 10 0 43 9 73 21 30 11 89 31 130 44 154 49 187 65 240
120 8 8 16 15 17 15 2 0 3 -285 3 -634z"/>
<path d="M6855 6854 c-351 -53 -601 -170 -810 -379 -140 -141 -230 -291 -274
-460 -54 -203 -10 -285 152 -285 50 0 71 5 98 23 34 23 37 30 84 177 14 47 43
113 63 148 l37 64 7 -59 c5 -34 22 -88 43 -130 160 -326 650 -323 812 4 34 69
38 85 41 173 5 117 -10 176 -68 272 -69 115 -50 141 95 127 255 -24 492 -134
652 -302 88 -93 143 -185 183 -306 16 -51 39 -106 51 -122 60 -85 215 -93 277
-14 47 59 20 229 -63 402 -155 319 -481 557 -883 644 -73 15 -142 21 -282 24
-102 2 -198 1 -215 -1z"/>
<path d="M3730 6836 c-449 -65 -823 -322 -991 -680 -75 -161 -100 -326 -58
-380 32 -41 71 -56 146 -56 50 0 77 5 100 20 39 24 47 38 78 146 27 92 50 141
99 216 l31 48 11 -71 c25 -143 105 -254 229 -315 134 -66 291 -69 423 -9 75
34 166 124 205 204 29 59 32 76 35 172 5 132 -11 193 -74 286 -63 91 -57 99
67 96 162 -3 384 -76 524 -173 165 -113 287 -281 340 -465 31 -109 87 -155
187 -155 66 0 115 25 140 71 25 43 18 125 -18 242 -123 392 -479 688 -949 787
-130 27 -390 35 -525 16z"/>
<path d="M4771 5183 c-48 -24 -71 -67 -71 -134 0 -50 4 -62 38 -103 91 -114
280 -230 456 -281 229 -65 520 -48 737 45 147 62 347 224 365 294 14 56 -2
116 -40 154 -32 32 -42 36 -100 40 -86 6 -121 -8 -208 -79 -82 -67 -181 -119
-278 -145 -88 -24 -253 -24 -340 -1 -93 25 -216 88 -285 148 -33 29 -74 58
-92 66 -45 18 -141 16 -182 -4z"/>
</g>
</svg>
