<?xml version="1.0" encoding="UTF-8" standalone="no"?>
<svg
   xmlns="http://www.w3.org/2000/svg"
   version="1.1"
   width="45"
   height="45">
   <g
      style="fill: #ffffff; stroke: #000000; stroke-width: 1.5; stroke-linejoin: round;">
    <path
       d="m 1425.4684,10766.709 v -7.2 h -9.8 -9.8 v -4 -4 h 9.8 9.8 v -15.4 -15.4 h -1.08 c -1.2,0 -3.4,-0.4 -11.72,-2.08 -34.56,-7.08 -58.04,-30.64 -63.8,-64.08 -0.32,-1.96 -0.6,-3.96 -0.6,-4.48 0,-1.24 -0.16,-1.2 -1.96,0.2 -2.88,2.28 -9.12,6.16 -13.04,8.12 -7.72,3.88 -15.88,6.48 -24.24,7.72 -5.68,0.8 -17.72,0.8 -23.6,-0.04 -25.2,-3.48 -49.12,-19.6 -62.68,-42.16 -4.28,-7.12 -7.24,-14.04 -9.52,-22.2 -1.12,-3.96 -2.5642,-4.838 -2.7242,-19.078 l 1.3242,-13.522 1.2,-4.92 c 2.72,-11.16 7.96,-21.52 15.88,-31.28 3.2,-4 15.16,-16 20.76,-20.88 18.28,-15.88 36.88,-28.32 59.08,-39.36 4.76,-2.36 8.56,-4.4 8.44,-4.48 -0.12,-0.12 -0.16,-26.88 -0.16,-59.44 0.04,-55.96 0.08,-59.28 0.72,-60.12 1.6606,-2.426 4.1616,-3.67 6.2,-5.64 36.664,-14.218 66.1512,-13.199 101.32,-16.56 46.7218,4.812 93.2507,9.519 125.2,25.48 h 1 v 58.4 c 0,49 -0.08,58.4 -0.56,58.4 -0.32,0 -0.48,0.32 -0.36,0.92 0.16,0.72 1.36,1.48 5.8,3.68 16.4,8.12 35,20.08 49.52,31.8 9.88,8 22.24,19.72 27.84,26.4 8.4,10 14.32,21.44 17.12,33.12 l 1.6432,9.257 0.3294,9.392 c -0.16,15.44 -1.1326,15.151 -3.8126,23.431 -8.88,27.4 -33.4,50.28 -61.76,57.6 -6.76,1.76 -12.4,2.4 -20.88,2.4 -10.88,0 -18.72,-1.36 -27.68,-4.68 -6.68,-2.48 -16.08,-7.68 -21.32,-11.84 -0.84,-0.64 -1.56,-1.12 -1.64,-1.04 -0.04,0.08 -0.36,1.8 -0.64,3.76 -2.6,18.36 -11.24,34.8 -24.4,46.48 -10.2,9.08 -23.6,15.8 -37.28,18.72 -2.72,0.6 -5.28,1.24 -5.72,1.4 -0.68,0.32 -7,1.2 -8.48,1.2 -0.4,0 -0.52,3.36 -0.52,15.4 v 15.4 h 9.4 9.4 v 4 4 h -9.4 -9.4 v 7.2 7.2 h -6.6 -6.6 z m 16.32,-48.44 c 17.6,-1.92 34.8,-9.36 47.28,-20.48 13.24,-11.76 22.08,-28.64 24.4,-46.68 0.28,-2.08 0.56,-4.04 0.64,-4.28 0.28,-1 1.84,-0.52 4.08,1.24 20.12,15.44 44.16,20.68 67.44,14.64 32.36,-8.36 58.08,-35.48 64.44,-68 0.88,-4.52 1.24,-15.96 0.64,-20.6 -1.52,-11.68 -5.84,-23 -12.68,-33.08 -4.04,-5.96 -7.6,-10.16 -14.36,-16.88 -44.96,-44.64 -107.16,-72.96 -176.8,-80.48 -19.12,-2.08 -44.6,0.52 -72.8,7.44 -47.12,11.56 -88.36,32.52 -122.8,62.52 -5.6,4.88 -17.56,16.88 -20.76,20.88 -17.84,22.04 -22.52,48.32 -13.16,73.4 7.6,20.32 22.88,37.48 42.52,47.72 23.44,12.28 48.92,12.68 71.8,1.16 4.2,-2.08 10,-5.76 13.92,-8.76 2.72,-2.08 4.04,-2.2 4.2,-0.32 0.04,0.68 0.36,2.96 0.72,5.12 5.2,32.72 29.08,57 62.96,64.04 2.76,0.6 6.36,1.2 8,1.4 4.4,0.48 15.84,0.52 20.32,0 z m 104.68,-289.04 -0.28,-6.08 c -3.4034,-2.174 -16.7045,-8.65 -40.4539,-13.731 -20.5463,-4.397 -49.3904,-7.379 -80.6309,-10.121 -38.23,2.034 -84.0515,4.315 -103.6352,18.812 v 24.32 c 0,23.96 0,24.32 0.76,23.88 0.44,-0.2 3.92,-1.64 7.72,-3.16 27.84,-11.08 55.12,-17.8 85.32,-21.08 31.92,-3.48 78.8,5 119.96,21.64 3.08,1.24 6.88,2.84 8.4,3.56 l 2.84,1.28 0.12,-16.6 c 0.08,-9.16 0,-19.36 -0.12,-22.72 z m 0.2,-14.68 v -2.96 c -4.0401,-6.606 -9.8704,-10.224 -24.1211,-13.41 -28.5165,-6.377 -69.4038,-12.531 -94.6825,-12.012 -23.7533,0.488 -44.7516,4.472 -62.1496,8.076 -22.0018,4.557 -38.0061,9.123 -43.8868,12.066 -0.2,0 -0.36,1.36 -0.36,3 v 3 c 36.1013,-14.658 66.4824,-14.352 103.4,-17.88 31.6985,2.366 60.3389,6.328 82.4763,11.304 16.3463,3.675 28.8621,8.206 37.9168,11.487 1,1.04 1.4069,0.369 1.4069,-2.671 z m 0,-34 v -25.36 l -3.16,-1.28 c -23.8884,-8.886 -61.3158,-20.678 -118.7556,-21.554 -35.1222,-0.556 -67.1141,4.666 -102.9244,17.554 -0.2,0 -0.36,10.6 -0.36,25.6 v 25.64 c 5.3646,-2.478 21.7267,-6.814 40.034,-10.223 27.052,-5.036 58.2601,-8.839 63.766,-8.097 5.9633,0.117 46.9624,1.68 80.3359,7.974 17.6053,3.319 32.6553,7.296 40.2641,14.506 0.32,0.32 0.64,0.6 0.68,0.6 0.08,0 0.12,-11.4 0.12,-25.36 z"/>
    <path
       d="m 1486.0684,10573.669 c -14.04,-2.12 -24.04,-6.8 -32.4,-15.16 -5.6,-5.64 -9.2,-11.64 -10.96,-18.4 -2.16,-8.12 -0.4,-11.4 6.08,-11.4 2,0 2.84,0.2 3.92,0.92 1.36,0.92 1.48,1.2 3.36,7.08 0.56,1.88 1.72,4.52 2.52,5.92 l 1.48,2.56 0.28,-2.36 c 0.2,-1.36 0.88,-3.52 1.72,-5.2 6.4,-13.04 26,-12.92 32.48,0.16 1.36,2.76 1.52,3.4 1.64,6.92 0.2,4.68 -0.4,7.04 -2.72,10.88 -2.76,4.6 -2,5.64 3.8,5.08 10.2,-0.96 19.68,-5.36 26.08,-12.08 3.52,-3.72 5.72,-7.4 7.32,-12.24 0.64,-2.04 1.56,-4.24 2.04,-4.88 2.4,-3.4 8.6,-3.72 11.08,-0.56 1.88,2.36 0.8,9.16 -2.52,16.08 -6.2,12.76 -19.24,22.28 -35.32,25.76 -2.92,0.6 -5.68,0.84 -11.28,0.96 -4.08,0.08 -7.92,0.04 -8.6,-0.04 z"/>
    <path
       d="m 1361.0684,10572.949 c -17.96,-2.6 -32.92,-12.88 -39.64,-27.2 -3,-6.44 -4,-13.04 -2.32,-15.2 1.28,-1.64 2.84,-2.24 5.84,-2.24 2,0 3.08,0.2 4,0.8 1.56,0.96 1.88,1.52 3.12,5.84 1.08,3.68 2,5.64 3.96,8.64 l 1.24,1.92 0.44,-2.84 c 1,-5.72 4.2,-10.16 9.16,-12.6 5.36,-2.64 11.64,-2.76 16.92,-0.36 3,1.36 6.64,4.96 8.2,8.16 1.16,2.36 1.28,3.04 1.4,6.88 0.2,5.28 -0.44,7.72 -2.96,11.44 -2.52,3.64 -2.28,3.96 2.68,3.84 6.48,-0.12 15.36,-3.04 20.96,-6.92 6.6,-4.52 11.48,-11.24 13.6,-18.6 1.24,-4.36 3.48,-6.2 7.48,-6.2 2.64,0 4.6,1 5.6,2.84 1,1.72 0.72,5 -0.72,9.68 -4.92,15.68 -19.16,27.52 -37.96,31.48 -5.2,1.08 -15.6,1.4 -21,0.64 z"/>
    <path
       d="m 1402.7084,10506.829 c -1.92,-0.96 -2.84,-2.68 -2.84,-5.36 0,-2 0.16,-2.48 1.52,-4.12 3.64,-4.56 11.2,-9.2 18.24,-11.24 9.16,-2.6 20.8,-1.92 29.48,1.8 5.88,2.48 13.88,8.96 14.6,11.76 0.56,2.24 -0.08,4.64 -1.6,6.16 -1.28,1.28 -1.68,1.44 -4,1.6 -3.44,0.24 -4.84,-0.32 -8.32,-3.16 -3.28,-2.68 -7.24,-4.76 -11.12,-5.8 -3.52,-0.96 -10.12,-0.96 -13.6,-0.04 -3.72,1 -8.64,3.52 -11.4,5.92 -1.32,1.16 -2.96,2.32 -3.68,2.64 -1.8,0.72 -5.64,0.64 -7.28,-0.16 z"/>
  </g>
</svg>
